<svg version="1" xmlns="http://www.w3.org/2000/svg" width="521.333" height="521.333" viewBox="0 0 391.000000 391.000000"><path d="M0 14.2v14.3L41 62c25.2 20.7 41 34.2 41 35.2 0 2.4-.7 2.3-4.9-.9-4.5-3.5-71.8-58.8-74.9-61.7l-2.4-2.1.4 3.1c.3 3.2-.2 2.7 66.5 57.7l7.3 5.9-3.9 4.4c-3.8 4.4-8.1 14.9-8.1 19.9 0 1.4-.3 2.5-.6 2.5-.4 0-13.9-6.3-30.1-14C15 104.3 1.3 98 .8 98s-.8.9-.6 2c.2 1.6 6.6 5 28 15.2 22.5 10.6 27.6 13.4 26.7 14.4-.6.8-1.7 1.4-2.3 1.4-.6 0-12.6-5.4-26.6-11.9L.5 107.3l-.3 43.9C.1 175.3.1 214.8.2 239l.3 43.9L26.4 271c14.2-6.6 26.3-12 26.7-12 .5 0 .9.8.9 1.9 0 1.3-2.9 3.1-11.2 7.1C6.1 285.2 0 288.3 0 290.2c0 1 .4 1.8.9 1.8s12.9-5.7 27.6-12.7l26.8-12.7 1.6 2.4c2 3.2 10.7 12 14.6 14.7 2.5 1.8 2.7 2.3 1.7 3.6-.7.9-1.2 2.2-1 3.1.3 1.6-2.8 4.2-49.9 42.9C2.8 349.3.1 351.8.1 354.4l-.1 2.9 2.3-2c1.2-1.1 11.4-9.6 22.7-18.8 11.3-9.3 26.9-22.2 34.8-28.8 9.3-7.7 14.8-11.7 15.8-11.3.9.3 1.4 1.1 1.2 1.7-.2.6-17.4 15.1-38.3 32.3l-38 31.2-.3 14.7-.3 14.7H391v-29.5l-38-31.3c-20.9-17.2-38-31.7-38-32.3 0-3.7 5.9.5 39.2 28 32.9 27.2 36.3 29.8 36.6 27.5.2-1.8-.5-3.1-2.5-4.7-1.5-1.2-12.3-10.1-23.9-19.7-11.6-9.6-26.6-22-33.3-27.5-9-7.4-12-10.4-11.6-11.6.4-1.1-.1-2.2-1.2-2.8-1.6-.9-1.6-1.2-.3-2 4.8-3.1 12.9-10.7 15.4-14.4l3-4.3 26.9 12.8c14.8 7 27.1 12.8 27.3 12.8.2 0 .4-1 .4-2.3-.1-1.9-3.4-3.8-25.7-14.2-14.1-6.6-26.2-12.4-26.8-13-.7-.5-1-1.7-.6-2.6.5-1.4 4.7.2 26.1 10.2 14 6.5 25.8 11.8 26.3 11.9.4 0 .7-39.2.7-87 0-47.9-.3-87-.7-87-.5.1-12.3 5.4-26.3 11.9-24.3 11.3-28 12.5-28 9.1 0-.4 12.4-6.5 27.5-13.6 23.9-11.2 27.4-13.2 27.5-15.2 0-1.2-.2-2.2-.4-2.2-.3 0-22.4 10.4-53.2 25.1-3.4 1.6-6.4 2.9-6.7 2.9-.3 0-1.1-2.6-1.7-5.8-1.4-6.7-5.1-14.6-8.6-18.3l-2.5-2.6 10.2-8.4C333.8 86.3 349 73.7 362 63c13-10.8 24.9-20.5 26.4-21.7 1.9-1.6 2.6-2.9 2.4-4.7-.3-2.2-3.8.4-37.8 28.5-20.6 17.1-38.7 31.7-40.2 32.5-2.6 1.4-4.6.5-3.4-1.5.4-.5 18.8-15.9 41.1-34.3L391 28.5V0H0v14.2zm177.7 39.7c-.7 7.9-1.1 8.4-6.1 7.7-4-.6-17.4.6-23.2 2-2.6.7-2.8.6-1.6-.9 4.7-5.7 22.1-14.6 28.6-14.7h2.9l-.6 5.9zm51.7-1.5c3.9 1.9 9.1 5.4 11.6 7.6 4.4 4 4.4 4.1 1.6 3.5-6.7-1.4-19.4-2.5-23.3-1.9l-4.1.6-1.2-5.7c-.6-3.1-.9-6.3-.6-7.2 1-2.4 7.6-1.1 16 3.1zM140 64.2c0 1.1-1.3 2.3-3.4 3.2-5.2 2.2-11.4 8.3-12.7 12.6-.8 2.7-2.1 4.2-4.6 5.4-4.1 2-4.8 1.6-6.3-2.9-1.1-3.3-.9-3.8 2.3-8.3 5.8-7.8 13.1-13.9 19.2-15.9 2.7-.9 3.1-.8 4.2 1.6.7 1.4 1.2 3.4 1.3 4.3zm69-6.5c0 .5.3 1.8.6 3 .5 1.8 0 2.5-3.1 3.7-7.5 3.2-26.1.9-24.9-3 .2-.8.6-2.1.9-2.9.4-1.2 2.8-1.5 13.5-1.5 7.1 0 13 .3 13 .7zm54.7 4.2c5.5 3.7 8.8 7.2 14.1 14.8 2.2 3.1 2.2 3.4.6 6.5-.9 1.8-1.8 3.4-1.9 3.6-.2.2-2.1-.6-4.4-1.8-2.5-1.2-4.1-2.7-4.1-3.9 0-3.3-5.5-9.5-11.1-12.5-3-1.6-5.5-3-5.6-3.1-.1 0 .2-1.8.8-3.8 1.3-4.9 3.9-4.9 11.6.2zm-84.1 5.2c2.4.6 4.4 1.3 4.4 1.6 0 2-4 7-8.3 10.4-4.5 3.7-20.6 12.4-21.3 11.6-.2-.1 0-2.8.3-6 .6-5.6.6-5.7 5-7.3 6-2.3 4.7-2.8-2.5-1-3.3.9-8.4 1.6-11.3 1.6-3 0-7.9.7-10.9 1.5-6.6 1.8-6 1.7-6 .5 0-.5 1.6-2.5 3.6-4.4 4-3.9 11.6-7.1 19.7-8.5 7.6-1.3 22.2-1.3 27.3 0zm64.9 1.2c7.2 2 12.8 5.1 15.9 8.8 1.5 1.7 2.5 3.3 2.4 3.5-.2.1-3-.4-6.3-1.2-3.3-.7-8.3-1.4-11.1-1.4-2.8 0-8.3-.9-12.3-1.9-7.9-2.1-8.4-1.4-.9 1.4l4.6 1.7.4 5.7c.2 3.1.3 5.8.2 6-.2.2-4.2-1.6-9-3.9-5.9-2.8-10.6-6-14.5-9.9-6.5-6.3-7.3-8.7-3.1-9.7 1.5-.3 3.2-.8 3.7-1 2.2-.9 25.3.6 30 1.9zM109.2 86.2c1.1 3.7 1 3.8-3.3 7.7-4.2 3.7-4.4 3.8-5 1.8-.3-1.5-1.5 1.4-3.5 8.8l-3 11-2.8-4.7c-1.5-2.5-3.3-5.2-4.1-5.8-2.2-1.8-1.8-4.4 1.6-11.3 3.8-7.5 5.7-9.9 10.6-13.8l3.8-3.1 2.2 2.9c1.3 1.5 2.8 4.5 3.5 6.5zM293 80.6c3.9 3.3 8 9.4 10.8 16.1l2.2 5.2-4.4 6.7-4.5 6.6-1.1-4.4c-2.1-7.8-5.2-17.8-5.6-17.8-.2 0-.1 1.5.3 3.2l.6 3.3-5.1-4.9-5.1-4.9 1.5-3.6c2.2-5.2 4.3-8.1 5.8-8.1.8 0 2.8 1.2 4.6 2.6zm-143.2 3.7c.7 3.7-5.9 14.9-13 21.9-3.8 3.7-7.2 6.8-7.6 6.8-.4 0-1.5-2.4-2.4-5.3l-1.7-5.2 5.2-4.9c5.8-5.3 5.3-5.2-4.8 1.3-6 3.8-14.8 7.8-21.8 9.8-1.8.5-1.8.4-.2-3.3 2.5-6.1 8.2-11.1 18-16 14.5-7.1 27.5-9.5 28.3-5.1zm105.6-.7c8.1 2 21.1 8.4 26.2 12.7 3.9 3.4 8.3 11.1 7.1 12.3-.3.3-3.5-.6-7.1-2-3.5-1.4-6.7-2.6-7-2.6-.3 0-4.5-2.5-9.3-5.5l-8.8-5.6 5.1 4.8c4.8 4.5 5 4.9 3.7 7.3-.7 1.4-1.3 3.7-1.3 5.2 0 1.6-.5 2.8-1.1 2.8-.6 0-4.2-3-8-6.7-7.3-7-12.9-16.3-12.9-21.5 0-2.6.3-2.8 3.6-2.8 2 0 6.4.7 9.8 1.6zM82.9 106.7c1.7 2.1 4 5.5 5.1 7.7l1.9 3.9-4.2 4.8c-4.4 5.1-5.6 5-5.8-.6 0-2.6-.2-2.7-.9-1-.5 1.1-.9 6.1-.9 11.2l-.1 9.1-6.1-5.8-6-5.8 1.1-6.3c1.9-10.5 7.7-20.9 11.6-20.9.7 0 2.6 1.7 4.3 3.7zm233.8-1.5c3 3.3 5.9 9.6 7.2 15.6 1.8 8.7 1.6 9.6-4.1 15.1-2.9 2.7-5.5 4.8-5.7 4.5-.2-.2-.7-5.4-1.1-11.6-.6-10.6-.7-11-1.4-6.1-.5 2.9-1 5.3-1.2 5.3-1 0-8.4-8.7-8.4-10 0-3 9.2-15 11.5-15 .6 0 2.1 1 3.2 2.2zm-111.6 6.3c.7 3 1.7 5.9 2.3 6.4.6.4 4.9 1.8 9.6 2.9l8.5 2.1 4.3-4.2 4.3-4.2 5.2 2.8c9.5 5.2 9.3 4.8 7.5 11.3l-1.6 5.6 3.4 3.7 3.3 3.7-5.1 6.2c-2.8 3.4-5.3 6.2-5.7 6.2-.3 0-2.8-1.8-5.4-4-9.1-7.5-23.9-14-31.8-14H201v16.5c0 18 .2 17.5-5.9 15.4-1.9-.7-3.6-2.2-4.2-3.6-.5-1.3-.9-8.2-.9-15.3 0-7.1-.3-13.1-.7-13.3-.5-.2-3.7.2-7.3.9-8.8 1.8-21.6 8.5-28.7 14.8l-5.7 5.3-9.9-3.9c-9.8-3.8-9.9-3.8-17-2.7-6.9 1.1-9.7 2.2-8.5 3.4.3.3 3.9 0 8.1-.6l7.6-1.1 16.3 6.2c24.1 9.2 25.8 10 25.8 12 0 1.6-2.1 13.2-2.5 13.8-.2.3-53.7-7.6-54-8-.1-.2-3.6-4.7-7.8-10-4.3-5.3-7.7-10.3-7.7-11.1 0-3.5 2.9-4.7 21.8-9.1 24.6-5.6 26.9-7.3 23.8-17.6l-1.5-5.1 3.2-1.9c1.8-1.1 5.1-3 7.4-4.2l4.2-2.3 4.5 4.4c4.2 4.1 4.6 4.3 7.8 3.3 1.8-.6 5.8-1.8 8.9-2.6l5.6-1.6 1.7-6 1.7-6h16.8l1.2 5.5zm-82.5-.9c1.5 5.8-2.7 17.5-9.3 26.5l-4.5 6.2-2.3-4.4c-1.6-3.2-2.7-4.3-4-4.1-1.5.3-1.6.1-.8-1 .5-.7 2.9-4 5.3-7.3l4.3-6-8.4 8.1C96 135.3 85.6 143 83.5 143c-1 0-.4-6.2.9-9.4 3.1-7.5 16.4-18.7 27.4-23.2 7.6-3.1 10-3.1 10.8.2zm160.2 1.3c7.6 3.8 17.3 11.2 20.7 15.7 4.3 5.6 7.2 15.4 4.6 15.4-2.3 0-9.2-5.2-17.9-13.5-9.9-9.4-10.4-9.5-4-.8 2.1 2.9 3.8 5.4 3.8 5.6 0 1.1-4.2 0-4.9-1.2-.7-1-2.1-1.2-5.4-.8l-4.6.6-2.8-5.7c-2-4-2.9-7.6-3.2-12.6l-.3-6.9 4.2.7c2.3.3 6.7 1.9 9.8 3.5zM64.8 136c2.3 1.6 5.9 5.3 8.2 8.1l4 5.1-3.7 4.6c-2.1 2.6-3.8 4.9-3.9 5-.2.2-1.3-1.9-2.5-4.7-1.2-2.9-2.4-5-2.6-4.7-.2.2.3 3.2 1.2 6.7 1.2 4.7 1.4 6.9.6 8.6l-1.1 2.4-5.2-3c-5.2-3-5.3-3.2-6.1-8.8-1.4-9.4 1.9-22.3 5.7-22.3.7 0 3.1 1.3 5.4 3zm270.8.7c2.9 6.1 3.2 25.3.3 25.3-.5 0-2.8 1.2-5 2.6-2.3 1.4-4.2 2.4-4.3 2.2-2.1-2.5-2.2-4.6-.5-11.1 1-3.9 1.7-7.3 1.5-7.4-.2-.2-1.4 2.1-2.7 5l-2.4 5.4-3.7-4.1c-2-2.3-3.7-4.6-3.7-5.1-.1-3.1 13.7-16.5 17-16.5.9 0 2.5 1.7 3.5 3.7zm-56.2 22.9c-6.5 26.1-6.5 26.4 2 28.3l5.7 1.3-.3 8.6-.3 8.7-5.7 1.4-5.7 1.5-2.3 9.3-2.2 9.3 4.2 4.3 4.3 4.4-4.1 7.1c-2.3 4-4.5 7.2-4.8 7.2-.4 0-2.9-.7-5.5-1.5-5.9-1.8-6.5-1.5-13.6 6-4.8 5.1-5.3 5.9-4.6 8.8 2 9.6 2.3 8.8-5.3 13.4l-7 4.1-4.3-4.4c-4.4-4.4-5.3-4.7-10.1-2.9-.9.4-2.2-1.7-4.1-6.8-1.5-4.1-2.7-7.8-2.7-8.3 0-.5 2.2-1.7 4.8-2.6 10.1-3.6 28.8-18.7 28-22.6-.2-.8-6.3-4.9-13.5-9.1-7.3-4.2-13.2-7.8-13.2-8.1 0-.3 1.8-1.9 3.8-3.7l3.8-3.2 11.9 6.9c6.5 3.8 12.4 7 13.1 7 2 0 5.4-12.8 6-22.1.4-5.5.1-11.2-.8-15.5-.7-3.8-1.4-7.2-1.4-7.5 0-.3 3.9-3.8 8.7-7.7 7.4-6.2 8.9-8 10.7-12.7 3-7.9 3.5-10.5 2.2-10.5-1.2 0-1.8 1.2-4.7 9.3-1.5 4.3-3.6 6.4-18.8 19.2-9.4 8-17.4 14.5-17.8 14.5-.4 0-3.2-2.4-6.3-5.3l-5.6-5.2 13.2-16.5c22.3-28 18.9-25 32.6-27.6 17.1-3.1 16.6-4.5 9.7 23.2zm-176.8-17c1.6 3.8 1.2 5-2 5.6-1.1.1-2.9 1.8-3.9 3.6l-2 3.3 3.3 4.6 3.3 4.5-1.9 4.7c-1.1 2.5-2.4 4.6-3 4.6-.5 0-2.7-1.9-4.7-4.2l-3.8-4.2 2.6-5.1c1.5-2.9 2.4-5.4 2.2-5.6-.2-.2-2.6 2.8-5.2 6.8-2.7 4-5.9 8.1-7.3 9.2-1.3 1-4 3.7-6 5.8-3.2 3.4-3.7 3.7-4.3 2.1-1.4-3.5-.9-7.8 1.6-13.2 3.4-7.1 16.1-19.9 23.5-23.4 3-1.4 5.6-2.6 5.8-2.7.2 0 1 1.6 1.8 3.6zm200.2 3.1c10.9 7.4 19.2 19.5 19.2 27.9 0 2.8-.2 5.3-.5 5.6-.9.9-12.9-11.5-17.8-18.5-2.7-3.7-5-6.7-5.3-6.7-.2 0 .9 2.7 2.6 6 3 5.9 3 5.9.9 7.3-1.1.8-3 2.8-4.3 4.5l-2.2 3.1-1.6-2.7c-5-8.4-7.5-24.5-4.7-30.4 1.2-2.7 1.2-2.7 4.8-1.2 2 .8 6 3.1 8.9 5.1zM58 168.5c4.9 3 5.6 3.8 6.2 7.5.4 2.4 1.4 5.3 2.3 6.6 1.3 2 1.3 2.7.3 4.4-.7 1.1-1.6 2-1.9 2-.4 0-2.4-2.5-4.4-5.5-2.1-3-4-5.5-4.1-5.5-.5 0 1.3 4.5 4.1 9.9 1.4 2.8 2.5 5.8 2.5 6.6 0 1.8 0 1.8-8.1-.9-5.5-1.8-5.8-2.1-7.3-6.9-2.4-7.4-3-14.9-1.6-19.1 1.1-3.4 1.5-3.7 3.9-3.1 1.4.3 5.1 2.1 8.1 4zm119.4-.5c0 1.9-.2 5.3-.5 7.4-.2 2.4 0 4.1.7 4.3.8.3 1.4-1.6 1.9-4.9.9-7.4 1.4-8.8 3.2-8.8 1.2 0 1.4 1.2.8 7.5-.5 4.8-.4 7.5.3 7.5 1.3 0 2.2-2.4 2.2-5.8 0-4.6 1.1-7.2 3.1-7.2 2.7 0 2.9 1.1 1.9 7.6-.5 3.2-.6 6.2-.1 6.7s1.1-.8 1.5-3c1.4-8.2 1.8-9.3 3.2-9.3 2.5 0 2.6 2.5 1 13.7-2.5 16.4-1.8 15-10.2 18.9-4.1 1.9-7.9 3.4-8.3 3.4-.5 0-5.1-4.6-10.2-10.2l-9.4-10.1 5.2.6c2.9.3 5.5.3 5.7-.1.3-.5 1.2-5 2.1-10.2 2-11.8 2.1-12.2 4.2-11.8 1.3.3 1.8 1.3 1.7 3.8zm167.6-2.1c1.5 2.9 1.1 13.9-.8 20-1.7 5.2-1.8 5.4-8.1 7.7-3.7 1.4-6.8 2.1-7.3 1.6s.6-4 2.6-8.2c2-4 3.5-7.5 3.3-7.7-.2-.1-2.1 2.2-4.4 5.2l-4 5.5-1.1-2.6c-1-2-.9-3.1.3-5.4.8-1.6 1.5-4.2 1.5-5.8 0-3.4 2.6-6.1 9.5-9.6 6-3.1 7.1-3.2 8.5-.7zm-255.7 7.9c3.3 3.6 4.9 10.4 5 20.3 0 11.3-.6 12.9-3.7 10.1-1.1-1.1-3.5-2.7-5.2-3.5l-3.1-1.6.9-5.7c.5-3.1.7-5.9.4-6.1-.2-.2-1.4 2.8-2.6 6.8-1.2 4-3.2 8.7-4.6 10.4-1.3 1.7-3.3 5.2-4.4 7.8-2.4 5.3-3.3 5.3-5.1 0-2.9-8.9 2.8-24.8 12.5-34.8 5.8-5.9 7.4-6.5 9.9-3.7zm222.7 3.9c6.5 6.8 10.4 13.6 12.6 22.3 1.5 6.1 1.4 8.8-.8 14.2-1.5 3.8-2.3 3.5-4.2-1.6-1-2.5-2.7-5.7-3.9-7.2-1.2-1.5-3.4-6.2-4.9-10.3l-2.8-7.6.5 5.5.6 5.5-5.5 3.6-5.4 3.6-.6-3c-.9-4.5-.7-14.7.5-19.7 1.3-5.6 4.6-11 6.7-11 .9 0 4.1 2.6 7.2 5.7zm-86-4.1c0 .3-1.2 2-2.6 3.7l-2.7 3.2 8.9 8.2c8.3 7.7 8.8 8.3 7.2 9.9-1.5 1.6-2 1.4-7.1-3-7.4-6.3-9.3-5.8-2.8.8 2.9 3 5 5.9 4.7 6.5-1.1 1.7-2 1.4-7.5-3-2.9-2.3-5.5-3.8-5.9-3.4-.7.6 1.2 2.5 7.2 7.2 2.4 1.9 2.6 2.5 1.6 3.8-1.8 2.1-2.3 2-7.5-2.5-2.6-2.2-5.1-3.8-5.6-3.4-.5.3 1.3 2.4 4.1 4.7 4.7 3.8 4.9 4.2 3.3 5.9-.9 1-2.1 1.5-2.7 1-.6-.5-5.6-4.6-11.2-9.1l-10.1-8.3 1.4-8.6c.7-4.7 1.5-8.8 1.7-9 .5-.4 21.5-4.9 23.9-5.1.9 0 1.7.2 1.7.5zm-96.6 7.3l3.9.6.2 15.5c.1 12.3.5 16.5 1.9 20.5 1 2.7 2.2 5.4 2.7 5.9.4.5 7.9-3.1 17.1-8.4 9-5.1 16.6-9.5 17-9.7.4-.2 1 .2 1.3.8.4.6-.2 1.3-1.4 1.6-1.9.5-2.1 1-1.5 5.2l.6 4.6-13.6 7.9c-7.5 4.3-13.6 8.3-13.6 8.9 0 .5 3.3 4.2 7.3 8.1 7.9 7.8 17.4 13.4 27.4 16.2 6.2 1.7 6.2 1.7 7.2 6.3.5 2.5 1.3 7.1 1.7 10.1.6 4.9 1.4 6.1 6.2 11.2 7 7.4 8.8 6.5 2.2-1.1l-4.9-5.7-3.6-21.3c-2-11.7-3.4-21.5-3.2-21.7.2-.2 3.6-1.5 7.6-2.9l7.2-2.4 1.3 3.2c.8 1.8 5 12.9 9.5 24.7l8.1 21.5-2.1 5.5c-6.7 18.1-7.1 19-8.8 19-.9 0-8.6-6.7-17.1-14.8-12.9-12.4-16.2-15-19.9-15.9-4.3-1.1-4.4-1.1-8.8 3l-4.5 4.2-6.7-3.7c-7.2-3.9-7.2-3.9-5.6-12.6.8-4.2.7-4.3-5.3-10.4-6.6-6.5-6.5-6.5-16.3-4.2-2.3.5-3-.1-6.8-6.6l-4.3-7.2 4.1-4.2c2.3-2.3 4.1-4.8 4.1-5.5 0-.8-1-4.9-2.2-9.3l-2.1-7.9-5.9-1.6-5.8-1.6v-8.4c0-5.8.4-8.5 1.3-8.8.6-.2 3.1-.9 5.5-1.5s4.5-1.6 4.7-2.3c2.6-7.4 1-6.9 13.9-4.8zm-73.1 17.9c4.7 2.1 4.7 2.1 4.7 7.1 0 2.7.3 5.8.7 6.8.4 1.2-.7.6-3.2-1.7-3.1-2.8-2.5-1.8 2.9 5.4 6.7 9 7.8 11.3 5.1 10.2-.8-.3-4.3-1-7.8-1.6-6-1.1-6.4-1.4-9-5.7-4.1-6.7-7.1-16.5-6.3-20.6.6-3.3.7-3.4 4.4-2.7 2 .3 5.8 1.6 8.5 2.8zm291.5 3.7c-.5 5.9-4.9 16.9-8.1 20.2-1.2 1.2-15.7 4.6-16.5 3.9-.2-.3 2.3-4 5.5-8.3 7.4-9.7 8.4-11.6 4.6-8l-3 2.8.1-6.1.2-6.1 4.4-2c5.2-2.3 11.1-3.8 12.4-3.1.5.3.6 3.3.4 6.7zm-139.4 5.8l3.9 3.3-3.9 11.7c-2.1 6.4-4.1 11.7-4.4 11.7-.4 0-1.4-1.6-2.3-3.6-1-2-2.3-3.4-3-3.2-13.3 4.8-20.7 7.2-21 6.8-.3-.3-.7-1.3-.9-2.3-.2-1.5 1.1-2.5 6.4-4.6 3.6-1.4 7-3 7.4-3.4 1.4-1.4-2.4-.7-8.1 1.5-4.8 1.8-5.8 1.9-6.6.7-1.5-2.4-1.1-2.7 5.6-4.9 6.2-2.1 9.2-4 6.2-4-.8 0-4 .9-7.1 2-4.9 1.6-5.8 1.7-6.3.4-.5-1.4 1.3-4.4 2.7-4.4 1.8 0 10.4-4.3 9.5-4.6-.6-.3-3.7.5-7 1.6-3.2 1.1-5.9 1.9-6.1 1.8-.1-.2-.4-1.2-.6-2.2-.2-1.6 1.7-2.6 13.2-6.7 15.2-5.3 13.3-5.5 22.4 2.4zm104.2 1.2c5.4 9.3 7.3 25.9 3.9 34.1-1.5 3.7-6.1 9.4-7.5 9.4-.3 0-.7-2.1-.9-4.6-.1-2.5-.6-5.7-1.2-7.1-.5-1.4-.7-6.8-.5-12.1l.5-9.7-1.6 6.7c-1.5 6.4-1.7 6.6-5.1 7.3-2 .4-4.9 1.3-6.4 2.1-2.6 1.3-2.8 1.3-2.8-.3.1-8 6.7-22 12.9-27.4 2.4-2.1 4.7-3.6 5.2-3.3.5.3 2 2.5 3.5 4.9zm-225.8-3c5 3.6 11.8 16.9 13.6 26.7l.7 3.6-5.2-1.9c-2.9-1.1-5.8-1.8-6.5-1.5-1.1.4-3-5.3-3.6-11.2-.1-.9-.5 3.7-.9 10.3-.5 6.6-1.2 13.9-1.6 16.3-.8 4.2-.8 4.2-3.1 2.7-5.7-4.1-8.5-16.2-6.3-27.7 2-9.9 6.5-18.8 9.5-18.8.6 0 2.1.7 3.4 1.5zm129.8 8.6c1.9 2.2 1.9 2.2-.3.8-1.3-.8-2.3-1.7-2.3-2.1 0-1.2.6-.9 2.6 1.3zM62.5 230.2c2.2.6 4.3 1.4 4.6 1.7.4.3.9 3 1.2 5.9l.6 5.3-3.7-2.1-3.7-2.1 3.2 2.6c1.8 1.5 5.3 5.1 7.8 8.1l4.7 5.4H63.1l-4.6-4.8c-7-7.2-12.3-19-9.8-21.6.9-.8 7.8 0 13.8 1.6zm280.7 1.6c-.3 4.7-4.3 11.9-9.7 18l-4.7 5.2h-14l2.4-3.1c1.3-1.7 4.6-5.4 7.3-8.1 3.6-3.7 4.1-4.5 1.8-2.9-1.7 1.1-3.3 2.1-3.6 2.1-.7 0 1.2-10.3 2.1-11.2 1.2-1.2 13.1-3.7 16.2-3.5 2.2.2 2.5.6 2.2 3.5zm-244.5 9.3c4.6 2.8 13.4 12.7 16.6 18.8 1.6 2.9 2.7 5.4 2.5 5.6-.2.2-3.3.1-6.8-.3l-6.5-.7-3.2-6c-3.8-7.1-3.9-7-1.2 1.5 1.2 3.6 2.4 10 2.8 14.3l.6 7.8-3-.3c-9-.9-16-28.8-10.4-41.1 1.4-3 2.9-3 8.6.4zm202.9.4c2.1 5.2 1.8 18.9-.6 26.9-2.4 7.5-7 13.6-10.5 13.6-2.2 0-2.2-.3-1.9-7.3.1-4.4 1.2-10 2.8-14.5 1.3-3.9 2.3-7.2 2.1-7.2-.3 0-1.8 2.7-3.5 6-3 5.9-3.1 6-7.3 6-2.3 0-5.2.3-6.4.6-1.6.5-2.3.2-2.3-.9 0-2 9.1-15.6 12.6-18.9 2.9-2.7 11.2-7.8 12.7-7.8.4 0 1.5 1.6 2.3 3.5zM82 260.4c1.4.6 4.5 10.4 3.6 11.3-.2.2-2.4-.5-5-1.6-2.5-1.1-4.6-1.9-4.6-1.6 0 .2 2.5 1.8 5.5 3.5 4.6 2.6 11 8.8 10.1 9.7-.1.2-2.7.7-5.6 1.3-5.3 1-5.6 1-10.7-2.6-6.4-4.4-12.7-11.1-15-15.9-1.5-3.2-1.5-3.7-.3-4.6 1.5-1 19.2-.6 22 .5zm249.2-.6c1.6.7 1.6 1-.1 4.7-2.5 5.7-6.4 9.9-13.7 15.1l-6.4 4.5-5.5-1.1-5.5-1.1 1.7-3c1-1.7 4.6-4.6 8-6.6 3.4-2 6.1-3.8 5.9-4-.2-.2-2.4.6-5 1.7s-4.9 2-5.1 2c-.3 0 2.6-10.3 3.1-10.9 1.5-1.7 19.1-2.7 22.6-1.3zm-215.6 10.7c6.3 1.8 15.3 7.7 21.9 14.1l5 4.9-7 .7-7 .7-4.9-4.7-4.9-4.7 3.7 5.5c2 3 3.6 6.2 3.6 7 .1.8.7 3.2 1.4 5.2 1.5 4.2.9 4.8-4.5 4.8-2.5 0-3.5-.9-6.9-6.3-4.8-7.4-8-17-8-23.8 0-5.6.2-5.6 7.6-3.4zm168 1.1c1.5 5.9-4.6 22.9-10.7 29.9-2.7 3-3.3 3.3-6.1 2.5-1.7-.5-3.2-1.1-3.4-1.2-.9-.9 3.1-12 5.6-15.6 3.7-5.3 3.2-5.4-1.7-.2l-3.8 4-7.5-.7-7.4-.6 6.6-6.2c8.5-7.8 19.5-13.8 26.5-14.4.7-.1 1.6 1.1 1.9 2.5zm-176.7 19.6c1.2 2.8 1.9 5.3 1.7 5.6-.3.2-2.8-.1-5.7-.7-7.7-1.7-7-.7 1.3 2 6.5 2 10.7 4.9 10.8 7.2 0 .4-2.1 1.7-4.7 2.8l-4.6 2-10.2-5c-6.8-3.3-11.3-6.3-13.8-9-4-4.4-4.4-5.5-2.4-6.8 2.3-1.4 12.2-3.1 18.8-3.2l6.6-.1 2.2 5.2zm196.5-4.1c3.2.6 7 1.5 8.3 2 2.5.9 2.5 1 .8 3.7-1 1.5-2.9 3.7-4.4 5-3.6 3.1-13.8 8.8-18.9 10.6-3.9 1.4-4.5 1.4-8.7-.5l-4.6-2 2-2.8c1.4-2 4-3.3 9.5-5.1 8.8-2.7 9.3-3.7 1.1-2-3.1.6-5.8 1-5.9.8-.2-.1.7-2.7 2-5.6l2.4-5.2h5.3c2.9 0 8 .5 11.1 1.1zM150.5 296c16.6 4.3 29.4 13.1 30.9 21.5.4 2 .4 4.1-.1 4.6s-3.2-.7-6.1-2.6c-9.6-6.5-28.2-16.4-28.2-15.1 0 .2 7 5.2 15.5 11.1 16.8 11.7 17.7 13.1 8.1 12.9-7.7-.2-17.1-5-25.8-13.2-9.6-9-15.2-19.1-11.5-20.5 2.7-1.1 9.8-.6 17.2 1.3zm109.2-.7c1.5 1.6-4.6 11.6-11.2 18.3-11 11-25.1 17.2-32.4 14.2l-3.3-1.3 11.4-7.7c15.1-10.2 21.5-14.8 20.5-14.8-1.7 0-19.7 9.6-26.4 14.1-4 2.7-7.5 4.9-7.9 4.9-1.8 0 .6-9.4 3.3-12.8 3.7-4.6 16.9-11.5 27.3-14.2 7.1-1.9 17.1-2.2 18.7-.7zM131.2 317l-7.7.5 9.5 1.3c9.4 1.3 11 1.9 19 8.1l2.4 1.9-4.8.7c-10.1 1.6-26.4-1.4-36.6-6.5-6.8-3.5-8.7-5.4-7.1-7.4 1.8-2.1 9.8-5.3 17.6-6.9l7-1.5 4.2 4.7 4.1 4.6-7.6.5zm142.7-6.9c4.9 1.6 13.1 5.8 13 6.7 0 .4-1.4 1.8-3.1 3.1-7.4 5.9-26.1 10.7-38.1 9.8-6.5-.4-9.6-1.5-7-2.4.6-.2 3.2-2 5.6-3.8 3.8-2.9 5.7-3.6 12.8-4.5 4.6-.5 8.8-1.1 9.4-1.2.5-.1-2.2-.4-6.2-.7l-7.2-.6 3.5-4.6 3.6-4.6 5 .8c2.7.5 6.6 1.3 8.7 2zm-74.3 20c18.9 9.2 29.4 16.7 29.4 20.8 0 2-6.4 5.1-10.6 5.1-3.7 0-4.4-.4-6.7-3.9-2.8-4.2-14.8-12.7-25.4-18-3.5-1.7-6.3-3.3-6.3-3.5 0-.7 5.5-6.5 6.2-6.6.5 0 6.5 2.8 13.4 6.1zm9.5-2.5c1.8 2 2.9 3.5 2.4 3.3-4.7-1.7-10.5-4.5-10.5-5.1 0-.5 1.4-1.1 4.1-1.7.3 0 2.1 1.5 4 3.5zm-23.6 11.1c3 1.5 5.5 3 5.5 3.3 0 .3-1.6 1.6-3.6 3-2 1.3-5.3 4.4-7.2 6.7-3 3.6-4.2 4.3-7.2 4.3-3.6 0-10.1-2.8-10.7-4.7-.6-1.8 4-6.5 10.6-10.9 3.6-2.4 6.7-4.3 6.8-4.4.2 0 2.7 1.2 5.8 2.7z"/></svg>