<?xml version="1.0" encoding="UTF-8" standalone="no"?>
<!DOCTYPE svg PUBLIC "-//W3C//DTD SVG 1.1//EN" "http://www.w3.org/Graphics/SVG/1.1/DTD/svg11.dtd">
<svg width="100%" height="100%" viewBox="0 0 513 513" version="1.1" xmlns="http://www.w3.org/2000/svg" xmlns:xlink="http://www.w3.org/1999/xlink" xml:space="preserve" xmlns:serif="http://www.serif.com/" style="fill-rule:evenodd;clip-rule:evenodd;stroke-linecap:round;stroke-linejoin:round;">
    <g>
        <path d="M145.068,494.936L42.668,494.936C28.554,494.936 17.068,483.45 17.068,469.336L17.068,42.67C17.068,28.556 28.554,17.07 42.668,17.07L145.068,17.07C149.787,17.07 153.601,13.247 153.601,8.537C153.601,3.827 149.787,0.004 145.068,0.004L42.668,0.004C19.142,0.004 0.001,19.144 0.001,42.671L0.001,469.338C0.001,492.864 19.141,512.005 42.668,512.005L145.068,512.005C149.787,512.005 153.601,508.182 153.601,503.472C153.601,498.762 149.787,494.936 145.068,494.936Z" style="fill-rule:nonzero;"/>
        <path d="M324.268,452.27C324.268,456.98 328.082,460.803 332.801,460.803L452.268,460.803C456.987,460.803 460.801,456.98 460.801,452.27L460.801,59.736C460.801,55.026 456.987,51.203 452.268,51.203L332.802,51.203C328.083,51.203 324.269,55.026 324.269,59.736C324.269,64.446 328.083,68.269 332.802,68.269L443.735,68.269L443.735,443.736L332.802,443.736C328.083,443.736 324.268,447.559 324.268,452.27Z" style="fill-rule:nonzero;"/>
        <path d="M422.458,409.466L305.941,409.466C301.961,409.466 298.744,406.487 298.744,402.817C298.744,399.147 301.961,396.168 305.941,396.168L422.458,396.168C426.438,396.168 429.655,399.147 429.655,402.817C429.655,406.487 426.438,409.466 422.458,409.466ZM422.458,382.869L305.941,382.869C301.961,382.869 298.744,379.891 298.744,376.22C298.744,372.55 301.961,369.572 305.941,369.571L422.458,369.571C426.438,369.572 429.655,372.55 429.655,376.22C429.655,379.89 426.438,382.869 422.458,382.869ZM422.458,356.273L305.941,356.273C301.961,356.273 298.744,353.294 298.744,349.624C298.744,345.954 301.961,342.975 305.941,342.975L422.458,342.975C426.438,342.975 429.655,345.954 429.655,349.624C429.655,353.294 426.438,356.272 422.458,356.273ZM422.458,329.675L305.941,329.675C301.961,329.675 298.744,326.696 298.744,323.026C298.744,319.356 301.961,316.377 305.941,316.377L422.458,316.377C426.438,316.377 429.655,319.356 429.655,323.026C429.655,326.696 426.438,329.675 422.458,329.675Z" style="fill-rule:nonzero;"/>
        <path d="M119.468,247.47C114.749,247.47 110.935,251.293 110.935,256.003C110.935,260.713 114.749,264.536 119.468,264.536L119.818,264.536C120.526,273.948 122.387,282.695 125.168,290.46L122.992,292.627C119.655,295.964 119.655,301.365 122.983,304.702C124.647,306.366 126.84,307.202 129.025,307.202C130.39,307.202 131.705,306.758 132.942,306.11C138.574,314.49 145.648,320.454 153.601,322.946L153.601,324.269C153.601,328.979 157.415,332.802 162.134,332.802C166.853,332.802 170.667,328.979 170.667,324.269L170.667,322.946C178.68,320.437 185.797,314.413 191.454,305.931C192.76,306.682 194.168,307.202 195.635,307.202C197.82,307.202 200.004,306.366 201.668,304.71C204.996,301.373 204.996,295.972 201.668,292.635L199.21,290.169C201.932,282.489 203.75,273.828 204.449,264.535L204.799,264.535C209.518,264.535 213.332,260.712 213.332,256.002C213.332,251.292 209.518,247.469 204.799,247.469L204.449,247.469C203.758,238.236 201.966,229.643 199.269,221.997L201.667,219.599C204.995,216.262 204.995,210.861 201.667,207.524C198.919,204.768 194.798,204.426 191.546,206.227C185.88,197.659 178.729,191.584 170.665,189.058L170.665,187.735C170.665,183.025 166.851,179.202 162.132,179.202C157.413,179.202 153.599,183.025 153.599,187.735L153.599,189.058C145.603,191.567 138.486,197.583 132.829,206.048C129.629,204.427 125.67,204.845 122.99,207.524C119.653,210.86 119.653,216.262 122.99,219.59L125.106,221.706C122.35,229.429 120.515,238.124 119.815,247.468L119.468,247.468L119.468,247.47ZM142.952,222.843C142.969,222.817 142.969,222.8 142.986,222.775C148.029,211.511 155.3,204.804 162.135,204.804C174.244,204.804 187.735,225.83 187.735,256.004C187.735,286.178 174.244,307.204 162.135,307.204C150.026,307.204 136.535,286.178 136.535,256.004C136.535,242.896 139.086,231.53 142.952,222.843Z" style="fill-rule:nonzero;"/>
        <path d="M273.068,469.337L273.068,42.67C273.068,37.96 269.254,34.137 264.535,34.137C259.816,34.137 256.002,37.96 256.002,42.67L256.002,469.337C256.002,474.047 259.816,477.87 264.535,477.87C269.254,477.87 273.068,474.047 273.068,469.337Z" style="fill-rule:nonzero;"/>
        <path d="M469.335,0.003L332.802,0.003C328.083,0.003 324.269,3.826 324.269,8.536C324.269,13.246 328.083,17.069 332.802,17.069L469.335,17.069C483.449,17.069 494.935,28.555 494.935,42.669L494.935,469.336C494.935,483.45 483.449,494.936 469.335,494.936L332.802,494.936C328.083,494.936 324.269,498.759 324.269,503.469C324.269,508.179 328.083,512.002 332.802,512.002L469.335,512.002C492.861,512.002 512.002,492.862 512.002,469.335L512.002,42.67C512.002,19.143 492.861,0.003 469.335,0.003Z" style="fill-rule:nonzero;"/>
        <path d="M162.135,273.07C166.854,273.07 170.668,269.247 170.668,264.537L170.668,247.47C170.668,242.76 166.854,238.937 162.135,238.937C157.416,238.937 153.602,242.76 153.602,247.47L153.602,264.537C153.602,269.247 157.416,273.07 162.135,273.07Z" style="fill-rule:nonzero;"/>
        <path d="M302.483,17.966L268.349,0.899C266.523,-0.006 264.441,-0.244 262.469,0.259L57.669,51.459C53.863,52.406 51.201,55.82 51.201,59.736L51.201,102.403L42.668,102.403C37.949,102.403 34.135,106.226 34.135,110.936L34.135,179.203C34.135,183.913 37.949,187.736 42.668,187.736L76.801,187.736C81.52,187.736 85.334,183.913 85.334,179.203L85.334,110.936C85.334,106.226 81.52,102.403 76.801,102.403L68.268,102.403L68.268,66.401L263.545,17.582L290.135,30.877L290.135,481.13L263.545,494.425L68.268,445.605L68.268,435.203C68.268,430.493 64.454,426.67 59.735,426.67C55.016,426.67 51.202,430.493 51.202,435.203L51.202,452.27C51.202,452.5 51.321,452.688 51.339,452.919C51.382,453.508 51.51,454.054 51.68,454.617C51.825,455.129 51.97,455.624 52.218,456.093C52.465,456.588 52.79,457.006 53.123,457.441C53.464,457.876 53.789,458.277 54.198,458.636C54.599,458.986 55.043,459.25 55.521,459.523C56.016,459.822 56.502,460.078 57.065,460.265C57.287,460.333 57.432,460.495 57.671,460.547L262.471,511.747C263.154,511.918 263.845,512.003 264.536,512.003C265.85,512.003 267.164,511.696 268.35,511.107L302.483,494.04C305.376,492.589 307.202,489.637 307.202,486.403L307.202,25.603C307.202,22.369 305.375,19.416 302.483,17.966ZM68.268,170.67L51.202,170.67L51.202,119.47L68.269,119.47L68.269,170.67L68.268,170.67Z" style="fill-rule:nonzero;"/>
        <path d="M59.735,204.803C55.016,204.803 51.202,208.626 51.202,213.336L51.202,324.27L42.669,324.27C37.95,324.27 34.136,328.093 34.136,332.803L34.136,401.07C34.136,405.78 37.95,409.603 42.669,409.603L76.802,409.603C81.521,409.603 85.335,405.78 85.335,401.07L85.335,332.803C85.335,328.093 81.521,324.27 76.802,324.27L68.269,324.27L68.269,213.337C68.268,208.626 64.454,204.803 59.735,204.803ZM68.268,392.536L51.202,392.536L51.202,341.336L68.269,341.336L68.269,392.536L68.268,392.536Z" style="fill-rule:nonzero;"/>
        <g id="path8" transform="matrix(0.267868,0,0,0.267868,315.731,188.172)">
            <path d="M233.3,21.345L127.234,127.411L296.94,297.117L190.874,403.183M21.168,191.051L127.234,297.117L296.94,127.411L403.006,233.477" style="fill:none;fill-rule:nonzero;stroke:black;stroke-width:44.8px;"/>
        </g>
    </g>
</svg>
