<svg viewBox="0 0 788 788"
  xmlns="http://www.w3.org/2000/svg" fill-rule="evenodd" clip-rule="evenodd" stroke-linejoin="round" stroke-miterlimit="2">
  <path d="M465.5 423.5l74 73-43 43-73-74c-103 82-252 75-347-20-102-102-102-267 0-369s267-102 369 0c95 95 102 244 20 347zm-241-26c22 6 13 39-9 33-15-4-29-9-42-17-84-48-113-156-65-240 12-20 42-3 30 17-39 68-15 154 52 193 11 6 22 11 34 14zm32 10c7-7 18-7 24 0 7 7 7 18 0 24-6 7-17 7-24 0-7-6-7-17 0-24zm235 164l80-80 209 208c10 11 9 30-3 42l-36 36c-12 12-31 13-42 3l-208-209zm-379-459c82-83 215-83 298 0 82 82 82 215 0 298-83 82-216 82-298 0-83-83-83-216 0-298z"/>
</svg>
