<svg viewBox="0 0 95 95"
  xmlns="http://www.w3.org/2000/svg" fill-rule="evenodd" clip-rule="evenodd" stroke-linejoin="round" stroke-miterlimit="2">
  <path d="M0 20.5v54C0 85.8 9.2 95 20.5 95h54C85.8 95 95 85.8 95 74.5v-54C95 9.2 85.8 0 74.5 0h-54C9.2 0 0 9.2 0 20.5zm49.6 3.7L65 39.6c.6.6.9 1.3.9 2.1 0 .7-.3 1.5-.9 2.1-1.1 1.1-3 1.1-4.1 0L50.4 33.3v35.5c0 1.6-1.3 2.9-2.9 2.9-1.6 0-2.9-1.3-2.9-2.9V33.3L34.2 43.7c-1.1 1.1-3 1.1-4.1 0-1.1-1.1-1.1-3 0-4.1l15.4-15.4c1.1-1.2 2.9-1.2 4.1 0z" fill-rule="nonzero"/>
</svg>